<svg width="29.999999999999996" height="29.999999999999996" xmlns="http://www.w3.org/2000/svg">
 <title>IconTitle</title>

 <g id="Layer_1">
  <title>Layer 1</title>
  <path fill="none" stroke="#00bfbf" opacity="NaN" d="m516.72152,524.84388l-18.45992,6.11814l3.48101,-4.85232l14.9789,-1.26582l0.00001,0z" id="svg_28"/>
  <path fill="none" stroke="#00bfbf" opacity="NaN" d="m501.21519,525.47679c0.52743,0.63291 6.22363,2.21519 8.75527,1.47679c2.53165,-0.7384 -10.97046,3.48101 -11.07595,3.48101c0.10549,0 2.8481,-4.32489 2.32068,-4.95781l0,0.00001z" id="svg_29"/>
  <path stroke="#01b0d3" fill="none" opacity="NaN" d="m3.37119,11.95144l-2.50966,3.70551c0.02396,0.02396 -0.07192,0.83887 0.31157,0.8868c0.38349,0.04794 2.23163,0.60586 1.94142,0.55128c-0.2902,-0.05458 1.17442,-0.11986 0.83887,-0.93477" id="svg_3"/>
  <path stroke="#01b0d3" fill="none" opacity="NaN" d="m2.56325,16.83136l-0.55125,1.60588c0.02396,0.02396 5.41014,1.95344 4.97005,0.23039" id="svg_4"/>
  <path stroke="#01b0d3" fill="none" opacity="NaN" d="m10.95208,16.352l-1.22236,4.00268c0.02396,0.02396 -0.74303,2.03727 -1.65381,2.51663c-0.91079,0.47936 -2.58337,1.02413 -3.18167,1.18143c-0.59831,0.1573 -1.33737,0.32204 -2.18717,-0.15035c-0.8498,-0.47238 -0.44447,-1.76939 -0.20174,-2.32671" id="svg_6"/>
  <path stroke="#01b0d3" fill="none" opacity="NaN" d="m2.43854,21.7063l0.45483,-0.79487l-0.44447,-0.66671l-0.40003,-0.62226l0.66683,-0.89645" id="svg_7"/>
  <path stroke="#01b0d3" fill="none" opacity="NaN" d="m10.62717,17.13342l12.57854,-3.8669" id="svg_9"/>
  <path stroke="#01b0d3" fill="none" opacity="NaN" d="m10.76051,16.82229l0.80005,-2.57794c0,0 0.71633,-1.11118 1.96085,-1.15563" id="svg_10"/>
  <path stroke="#01b0d3" fill="none" opacity="NaN" d="m13.33844,13.08873l11.42292,-3.37798" id="svg_11"/>
  <path stroke="#01b0d3" fill="none" opacity="NaN" d="m15.65613,12.33313l0.40003,-2.57794c0,0 0.35558,-0.80005 1.15563,-0.8445" id="svg_12"/>
  <path stroke="#01b0d3" fill="none" opacity="NaN" d="m16.98311,8.95515l9.55614,-3.02241" id="svg_13"/>
  <path stroke="#01b0d3" fill="none" opacity="NaN" d="m8.89373,8.28844l14.44533,-4.40027" id="svg_14"/>
  <path stroke="#01b0d3" fill="none" opacity="NaN" d="m3.83816,6.64389l8.62275,-2.48904c0,0 0.93339,-0.26668 1.5112,0.26668c0.57781,0.53337 1.55565,1.6001 1.6001,1.73344" id="svg_15"/>
  <path stroke="#01b0d3" fill="none" opacity="NaN" d="m14.09404,16.02224l1.68899,1.77789c0,0 0.8445,0.7556 1.55565,0.31113" id="svg_16"/>
  <path stroke="#01b0d3" fill="none" opacity="NaN" d="m19.4277,17.52774l-2.26681,0.66671" id="svg_17"/>
  <ellipse stroke="#01b0d3" fill="none" cx="20.49443" cy="17.17787" id="svg_18" rx="1.28897" ry="1.28897" opacity="NaN"/>
  <ellipse stroke="#01b0d3" fill="none" cx="24.31689" cy="12.91094" id="svg_19" rx="1.28897" ry="1.28897" opacity="NaN"/>
  <ellipse stroke="#01b0d3" fill="none" cx="25.96143" cy="9.35517" id="svg_20" rx="1.28897" ry="1.28897" opacity="NaN"/>
  <ellipse stroke="#01b0d3" fill="none" cx="27.78377" cy="5.62161" id="svg_21" rx="1.28897" ry="1.28897" opacity="NaN"/>
  <ellipse stroke="#01b0d3" fill="none" cx="24.53913" cy="3.4437" id="svg_22" rx="1.28897" ry="1.28897" opacity="NaN"/>
  <path stroke="#01b0d3" fill="none" opacity="NaN" d="m3.24894,12.06645l0.31113,-0.80005c0,0 -1.06673,-1.20007 -0.0889,-3.91135" id="svg_23"/>
  <path stroke="#01b0d3" fill="none" opacity="NaN" d="m3.38228,7.53284c1.06673,-2.88907 4.53403,-5.7121 7.51157,-6.0789" id="svg_24"/>
  <path stroke="#01b0d3" fill="none" opacity="NaN" d="m10.76283,1.44643c0.32277,0.07034 5.3397,-1.40893 9.4228,2.57794" id="svg_25"/>
  <path stroke="#01b0d3" fill="none" opacity="NaN" d="m20.04996,3.84372c4.84474,4.44472 1.33341,8.48941 0.88894,9.06722" id="svg_26"/>
  <path stroke="#01b0d3" fill="none" opacity="NaN" d="m19.02768,14.51104l2.08902,-1.73344" id="svg_27"/>
  <path stroke="#01b0d3" fill="#01b0d3" opacity="NaN" d="m2.31555,13.48875l7.86714,-2.48904c0,0 -5.48459,1.16332 -6.11122,0.53555c-0.62664,-0.62777 -1.40035,1.7757 -1.75593,1.95349l0,0l0,0z" id="svg_30"/>
  <ellipse stroke="#01b0d3" fill="none" cx="7.81708" cy="8.7724" id="svg_31" rx="1.28897" ry="1.28897" opacity="NaN"/>
  <ellipse stroke="#01b0d3" fill="none" cx="9.36277" cy="31.11176" id="svg_32" rx="1.26582" ry="0.58017" opacity="NaN" transform="matrix(0.479238 -0.148693 0.148693 0.479238 2.4897 -1.21019)"/>
  <text stroke="#01b0d3" fill="#01b0d3" x="39.43551" y="138.72009" id="svg_34" stroke-width="2" font-size="24" font-family="Noto Sans JP" text-anchor="start" xml:space="preserve" transform="matrix(0.319803 0 0 0.319803 -2.33862 -19.6853)" opacity="NaN">Gr</text>
  <text stroke="#01b0d3" fill="#01b0d3" x="70.40833" y="97.89094" id="svg_36" font-size="24" font-family="Noto Sans JP" text-anchor="start" xml:space="preserve" transform="matrix(0.447829 0 0 0.343544 -13.8069 -5.39034)">2</text>
 </g>
</svg>